
=== START BUFFER 2025-08-13T13:57:33.159222 | ch=16 ===
Input #0, mpegts, from 'http://darkteam.vip:80/mo2@urute/36108548036242/445376':
  Duration: N/A, start: 274.411567, bitrate: N/A
  Program 1 
    Metadata:
      service_name    : Service01
      service_provider: FFmpeg
  Stream #0:0[0x100]: Video: h264 (High) ([27][0][0][0] / 0x001B), yuv420p(progressive), 1920x1080 [SAR 1:1 DAR 16:9], 30 fps, 30 tbr, 90k tbn, start 274.466667
  Stream #0:1[0x101](und): Audio: aac (LC) ([15][0][0][0] / 0x000F), 44100 Hz, mono, fltp, 67 kb/s, start 274.411567
Stream mapping:
  Stream #0:0 -> #0:0 (h264 (native) -> h264 (libx264))
  Stream #0:1 -> #0:1 (aac (native) -> aac (native))
[libx264 @ 00000281f7149ec0] using SAR=1/1
[libx264 @ 00000281f7149ec0] using cpu capabilities: MMX2 SSE2Fast SSSE3 SSE4.2 AVX
[libx264 @ 00000281f7149ec0] profile High, level 4.0, 4:2:0, 8-bit
[libx264 @ 00000281f7149ec0] 264 - core 165 r3222 b35605a - H.264/MPEG-4 AVC codec - Copyleft 2003-2025 - http://www.videolan.org/x264.html - options: cabac=1 ref=1 deblock=1:0:0 analyse=0x3:0x113 me=hex subme=2 psy=1 psy_rd=1.00:0.00 mixed_ref=0 me_range=16 chroma_me=1 trellis=0 8x8dct=1 cqm=0 deadzone=21,11 fast_pskip=1 chroma_qp_offset=0 threads=34 lookahead_threads=8 sliced_threads=0 nr=0 decimate=1 interlaced=0 bluray_compat=0 constrained_intra=0 bframes=3 b_pyramid=2 b_adapt=1 b_bias=0 direct=1 weightb=1 open_gop=0 weightp=1 keyint=250 keyint_min=25 scenecut=40 intra_refresh=0 rc_lookahead=10 rc=crf mbtree=1 crf=23.0 qcomp=0.60 qpmin=0 qpmax=69 qpstep=4 vbv_maxrate=3000 vbv_bufsize=6000 crf_max=0.0 nal_hrd=none filler=0 ip_ratio=1.40 aq=1:1.00
[hls muxer @ 00000281f613ed40] [Eval @ 000000db5c7fe280] Invalid chars '=0' at the end of expression 'temp_file=0'
[hls muxer @ 00000281f613ed40] Unable to parse option value "temp_file=0+split_by_time"
[hls muxer @ 00000281f613ed40] Error setting option hls_flags to value independent_segments+append_list+program_date_time+temp_file=0+split_by_time.
[out#0/hls @ 00000281f6134540] Could not write header (incorrect codec parameters ?): Invalid argument
[vf#0:0 @ 00000281f6a800c0] Error sending frames to consumers: Invalid argument
[vf#0:0 @ 00000281f6a800c0] Task finished with error code: -22 (Invalid argument)
[vf#0:0 @ 00000281f6a800c0] Terminating thread with return code -22 (Invalid argument)
[out#0/hls @ 00000281f6134540] Nothing was written into output file, because at least one of its streams received no packets.
frame=    0 fps=0.0 q=0.0 Lsize=       0KiB time=N/A bitrate=N/A speed=N/A elapsed=0:00:00.15    
[aac @ 00000281f6e70e40] Qavg: 339.630
Conversion failed!

=== START BUFFER 2025-08-13T13:57:48.471890 | ch=16 ===
Input #0, mpegts, from 'http://darkteam.vip:80/mo2@urute/36108548036242/445376':
  Duration: N/A, start: 292.105178, bitrate: N/A
  Program 1 
    Metadata:
      service_name    : Service01
      service_provider: FFmpeg
  Stream #0:0[0x100]: Video: h264 (High) ([27][0][0][0] / 0x001B), yuv420p(progressive), 1920x1080 [SAR 1:1 DAR 16:9], 30 fps, 30 tbr, 90k tbn, start 292.166667
  Stream #0:1[0x101](und): Audio: aac (LC) ([15][0][0][0] / 0x000F), 44100 Hz, mono, fltp, 67 kb/s, start 292.105178
Stream mapping:
  Stream #0:0 -> #0:0 (h264 (native) -> h264 (libx264))
  Stream #0:1 -> #0:1 (aac (native) -> aac (native))
[libx264 @ 000001954e4912c0] using SAR=1/1
[libx264 @ 000001954e4912c0] using cpu capabilities: MMX2 SSE2Fast SSSE3 SSE4.2 AVX
[libx264 @ 000001954e4912c0] profile High, level 4.0, 4:2:0, 8-bit
[libx264 @ 000001954e4912c0] 264 - core 165 r3222 b35605a - H.264/MPEG-4 AVC codec - Copyleft 2003-2025 - http://www.videolan.org/x264.html - options: cabac=1 ref=1 deblock=1:0:0 analyse=0x3:0x113 me=hex subme=2 psy=1 psy_rd=1.00:0.00 mixed_ref=0 me_range=16 chroma_me=1 trellis=0 8x8dct=1 cqm=0 deadzone=21,11 fast_pskip=1 chroma_qp_offset=0 threads=34 lookahead_threads=8 sliced_threads=0 nr=0 decimate=1 interlaced=0 bluray_compat=0 constrained_intra=0 bframes=3 b_pyramid=2 b_adapt=1 b_bias=0 direct=1 weightb=1 open_gop=0 weightp=1 keyint=250 keyint_min=25 scenecut=40 intra_refresh=0 rc_lookahead=10 rc=crf mbtree=1 crf=23.0 qcomp=0.60 qpmin=0 qpmax=69 qpstep=4 vbv_maxrate=3000 vbv_bufsize=6000 crf_max=0.0 nal_hrd=none filler=0 ip_ratio=1.40 aq=1:1.00
[hls muxer @ 000001954f545780] [Eval @ 0000002c643fe710] Invalid chars '=0' at the end of expression 'temp_file=0'
[hls muxer @ 000001954f545780] Unable to parse option value "temp_file=0+split_by_time"
[hls muxer @ 000001954f545780] Error setting option hls_flags to value independent_segments+append_list+program_date_time+temp_file=0+split_by_time.
[out#0/hls @ 000001954e3ee000] Could not write header (incorrect codec parameters ?): Invalid argument
[vf#0:0 @ 000001954eb800c0] Error sending frames to consumers: Invalid argument
[vf#0:0 @ 000001954eb800c0] Task finished with error code: -22 (Invalid argument)
[vf#0:0 @ 000001954eb800c0] Terminating thread with return code -22 (Invalid argument)
[out#0/hls @ 000001954e3ee000] Nothing was written into output file, because at least one of its streams received no packets.
frame=    0 fps=0.0 q=0.0 Lsize=       0KiB time=N/A bitrate=N/A speed=N/A elapsed=0:00:00.14    
[aac @ 000001954eda9540] Qavg: 509.202
Conversion failed!

=== START BUFFER 2025-08-13T13:57:57.221730 | ch=16 ===
Input #0, mpegts, from 'http://darkteam.vip:80/mo2@urute/36108548036242/445376':
  Duration: N/A, start: 301.718233, bitrate: N/A
  Program 1 
    Metadata:
      service_name    : Service01
      service_provider: FFmpeg
  Stream #0:0[0x100]: Video: h264 (High) ([27][0][0][0] / 0x001B), yuv420p(progressive), 1920x1080 [SAR 1:1 DAR 16:9], 30 fps, 30 tbr, 90k tbn, start 301.766667
  Stream #0:1[0x101](und): Audio: aac (LC) ([15][0][0][0] / 0x000F), 44100 Hz, mono, fltp, 67 kb/s, start 301.718233
Stream mapping:
  Stream #0:0 -> #0:0 (h264 (native) -> h264 (libx264))
  Stream #0:1 -> #0:1 (aac (native) -> aac (native))
[libx264 @ 00000285a91be000] using SAR=1/1
[libx264 @ 00000285a91be000] using cpu capabilities: MMX2 SSE2Fast SSSE3 SSE4.2 AVX
[libx264 @ 00000285a91be000] profile High, level 4.0, 4:2:0, 8-bit
[libx264 @ 00000285a91be000] 264 - core 165 r3222 b35605a - H.264/MPEG-4 AVC codec - Copyleft 2003-2025 - http://www.videolan.org/x264.html - options: cabac=1 ref=1 deblock=1:0:0 analyse=0x3:0x113 me=hex subme=2 psy=1 psy_rd=1.00:0.00 mixed_ref=0 me_range=16 chroma_me=1 trellis=0 8x8dct=1 cqm=0 deadzone=21,11 fast_pskip=1 chroma_qp_offset=0 threads=34 lookahead_threads=8 sliced_threads=0 nr=0 decimate=1 interlaced=0 bluray_compat=0 constrained_intra=0 bframes=3 b_pyramid=2 b_adapt=1 b_bias=0 direct=1 weightb=1 open_gop=0 weightp=1 keyint=250 keyint_min=25 scenecut=40 intra_refresh=0 rc_lookahead=10 rc=crf mbtree=1 crf=23.0 qcomp=0.60 qpmin=0 qpmax=69 qpstep=4 vbv_maxrate=3000 vbv_bufsize=6000 crf_max=0.0 nal_hrd=none filler=0 ip_ratio=1.40 aq=1:1.00
[hls muxer @ 00000285aa3aa5c0] [Eval @ 000000961d3fe560] Invalid chars '=0' at the end of expression 'temp_file=0'
[hls muxer @ 00000285aa3aa5c0] Unable to parse option value "temp_file=0+split_by_time"
[hls muxer @ 00000285aa3aa5c0] Error setting option hls_flags to value independent_segments+append_list+program_date_time+temp_file=0+split_by_time.
[out#0/hls @ 00000285a9afa200] Could not write header (incorrect codec parameters ?): Invalid argument
[vf#0:0 @ 00000285a9b000c0] Error sending frames to consumers: Invalid argument
[vf#0:0 @ 00000285a9b000c0] Task finished with error code: -22 (Invalid argument)
[vf#0:0 @ 00000285a9b000c0] Terminating thread with return code -22 (Invalid argument)
[out#0/hls @ 00000285a9afa200] Nothing was written into output file, because at least one of its streams received no packets.
frame=    0 fps=0.0 q=0.0 Lsize=       0KiB time=N/A bitrate=N/A speed=N/A elapsed=0:00:00.14    
[aac @ 00000285a9d2a2c0] Qavg: 56823.949
Conversion failed!

=== START BUFFER 2025-08-13T13:58:03.784960 | ch=16 ===
Input #0, mpegts, from 'http://darkteam.vip:80/mo2@urute/36108548036242/445376':
  Duration: N/A, start: 301.718233, bitrate: N/A
  Program 1 
    Metadata:
      service_name    : Service01
      service_provider: FFmpeg
  Stream #0:0[0x100]: Video: h264 (High) ([27][0][0][0] / 0x001B), yuv420p(progressive), 1920x1080 [SAR 1:1 DAR 16:9], 30 fps, 30 tbr, 90k tbn, start 301.766667
  Stream #0:1[0x101](und): Audio: aac (LC) ([15][0][0][0] / 0x000F), 44100 Hz, mono, fltp, 67 kb/s, start 301.718233
Stream mapping:
  Stream #0:0 -> #0:0 (h264 (native) -> h264 (libx264))
  Stream #0:1 -> #0:1 (aac (native) -> aac (native))
[libx264 @ 000001e34b75e000] using SAR=1/1
[libx264 @ 000001e34b75e000] using cpu capabilities: MMX2 SSE2Fast SSSE3 SSE4.2 AVX
[libx264 @ 000001e34b75e000] profile High, level 4.0, 4:2:0, 8-bit
[libx264 @ 000001e34b75e000] 264 - core 165 r3222 b35605a - H.264/MPEG-4 AVC codec - Copyleft 2003-2025 - http://www.videolan.org/x264.html - options: cabac=1 ref=1 deblock=1:0:0 analyse=0x3:0x113 me=hex subme=2 psy=1 psy_rd=1.00:0.00 mixed_ref=0 me_range=16 chroma_me=1 trellis=0 8x8dct=1 cqm=0 deadzone=21,11 fast_pskip=1 chroma_qp_offset=0 threads=34 lookahead_threads=8 sliced_threads=0 nr=0 decimate=1 interlaced=0 bluray_compat=0 constrained_intra=0 bframes=3 b_pyramid=2 b_adapt=1 b_bias=0 direct=1 weightb=1 open_gop=0 weightp=1 keyint=250 keyint_min=25 scenecut=40 intra_refresh=0 rc_lookahead=10 rc=crf mbtree=1 crf=23.0 qcomp=0.60 qpmin=0 qpmax=69 qpstep=4 vbv_maxrate=3000 vbv_bufsize=6000 crf_max=0.0 nal_hrd=none filler=0 ip_ratio=1.40 aq=1:1.00
[hls muxer @ 000001e34c78a5c0] [Eval @ 00000025f25fe570] Invalid chars '=0' at the end of expression 'temp_file=0'
[hls muxer @ 000001e34c78a5c0] Unable to parse option value "temp_file=0+split_by_time"
[hls muxer @ 000001e34c78a5c0] Error setting option hls_flags to value independent_segments+append_list+program_date_time+temp_file=0+split_by_time.
[out#0/hls @ 000001e34beea200] Could not write header (incorrect codec parameters ?): Invalid argument
[vf#0:0 @ 000001e34bef00c0] Error sending frames to consumers: Invalid argument
[vf#0:0 @ 000001e34bef00c0] Task finished with error code: -22 (Invalid argument)
[vf#0:0 @ 000001e34bef00c0] Terminating thread with return code -22 (Invalid argument)
[out#0/hls @ 000001e34beea200] Nothing was written into output file, because at least one of its streams received no packets.
frame=    0 fps=0.0 q=0.0 Lsize=       0KiB time=N/A bitrate=N/A speed=N/A elapsed=0:00:00.15    
[aac @ 000001e34c119b80] Qavg: 56823.949
Conversion failed!

=== START BUFFER 2025-08-13T13:58:10.342758 | ch=16 ===
Input #0, mpegts, from 'http://darkteam.vip:80/mo2@urute/36108548036242/445376':
  Duration: N/A, start: 310.077756, bitrate: N/A
  Program 1 
    Metadata:
      service_name    : Service01
      service_provider: FFmpeg
  Stream #0:0[0x100]: Video: h264 (High) ([27][0][0][0] / 0x001B), yuv420p(progressive), 1920x1080 [SAR 1:1 DAR 16:9], 30 fps, 30 tbr, 90k tbn, start 310.133333
  Stream #0:1[0x101](und): Audio: aac (LC) ([15][0][0][0] / 0x000F), 44100 Hz, mono, fltp, 67 kb/s, start 310.077756
Stream mapping:
  Stream #0:0 -> #0:0 (h264 (native) -> h264 (libx264))
  Stream #0:1 -> #0:1 (aac (native) -> aac (native))
[libx264 @ 000001dc9dbc0500] using SAR=1/1
[libx264 @ 000001dc9dbc0500] using cpu capabilities: MMX2 SSE2Fast SSSE3 SSE4.2 AVX
[libx264 @ 000001dc9dbc0500] profile High, level 4.0, 4:2:0, 8-bit
[libx264 @ 000001dc9dbc0500] 264 - core 165 r3222 b35605a - H.264/MPEG-4 AVC codec - Copyleft 2003-2025 - http://www.videolan.org/x264.html - options: cabac=1 ref=1 deblock=1:0:0 analyse=0x3:0x113 me=hex subme=2 psy=1 psy_rd=1.00:0.00 mixed_ref=0 me_range=16 chroma_me=1 trellis=0 8x8dct=1 cqm=0 deadzone=21,11 fast_pskip=1 chroma_qp_offset=0 threads=34 lookahead_threads=8 sliced_threads=0 nr=0 decimate=1 interlaced=0 bluray_compat=0 constrained_intra=0 bframes=3 b_pyramid=2 b_adapt=1 b_bias=0 direct=1 weightb=1 open_gop=0 weightp=1 keyint=250 keyint_min=25 scenecut=40 intra_refresh=0 rc_lookahead=10 rc=crf mbtree=1 crf=23.0 qcomp=0.60 qpmin=0 qpmax=69 qpstep=4 vbv_maxrate=3000 vbv_bufsize=6000 crf_max=0.0 nal_hrd=none filler=0 ip_ratio=1.40 aq=1:1.00
[hls muxer @ 000001dc9de76c80] [Eval @ 000000db2f9fe240] Invalid chars '=0' at the end of expression 'temp_file=0'
[hls muxer @ 000001dc9de76c80] Unable to parse option value "temp_file=0+split_by_time"
[hls muxer @ 000001dc9de76c80] Error setting option hls_flags to value independent_segments+append_list+program_date_time+temp_file=0+split_by_time.
[out#0/hls @ 000001dc9d42e000] Could not write header (incorrect codec parameters ?): Invalid argument
[vf#0:0 @ 000001dc9d4db200] Error sending frames to consumers: Invalid argument
[vf#0:0 @ 000001dc9d4db200] Task finished with error code: -22 (Invalid argument)
[vf#0:0 @ 000001dc9d4db200] Terminating thread with return code -22 (Invalid argument)
[out#0/hls @ 000001dc9d42e000] Nothing was written into output file, because at least one of its streams received no packets.
frame=    0 fps=0.0 q=0.0 Lsize=       0KiB time=N/A bitrate=N/A speed=N/A elapsed=0:00:00.15    
[aac @ 000001dc9e8e62c0] Qavg: 2918.553
Conversion failed!

=== START BUFFER 2025-08-13T13:58:21.273090 | ch=16 ===
Input #0, mpegts, from 'http://darkteam.vip:80/mo2@urute/36108548036242/445376':
  Duration: N/A, start: 321.687389, bitrate: N/A
  Program 1 
    Metadata:
      service_name    : Service01
      service_provider: FFmpeg
  Stream #0:0[0x100]: Video: h264 (High) ([27][0][0][0] / 0x001B), yuv420p(progressive), 1920x1080 [SAR 1:1 DAR 16:9], 30 fps, 30 tbr, 90k tbn, start 321.733333
  Stream #0:1[0x101](und): Audio: aac (LC) ([15][0][0][0] / 0x000F), 44100 Hz, mono, fltp, 66 kb/s, start 321.687389
Stream mapping:
  Stream #0:0 -> #0:0 (h264 (native) -> h264 (libx264))
  Stream #0:1 -> #0:1 (aac (native) -> aac (native))
[libx264 @ 000001f6712000c0] using SAR=1/1
[libx264 @ 000001f6712000c0] using cpu capabilities: MMX2 SSE2Fast SSSE3 SSE4.2 AVX
[libx264 @ 000001f6712000c0] profile High, level 4.0, 4:2:0, 8-bit
[libx264 @ 000001f6712000c0] 264 - core 165 r3222 b35605a - H.264/MPEG-4 AVC codec - Copyleft 2003-2025 - http://www.videolan.org/x264.html - options: cabac=1 ref=1 deblock=1:0:0 analyse=0x3:0x113 me=hex subme=2 psy=1 psy_rd=1.00:0.00 mixed_ref=0 me_range=16 chroma_me=1 trellis=0 8x8dct=1 cqm=0 deadzone=21,11 fast_pskip=1 chroma_qp_offset=0 threads=34 lookahead_threads=8 sliced_threads=0 nr=0 decimate=1 interlaced=0 bluray_compat=0 constrained_intra=0 bframes=3 b_pyramid=2 b_adapt=1 b_bias=0 direct=1 weightb=1 open_gop=0 weightp=1 keyint=250 keyint_min=25 scenecut=40 intra_refresh=0 rc_lookahead=10 rc=crf mbtree=1 crf=23.0 qcomp=0.60 qpmin=0 qpmax=69 qpstep=4 vbv_maxrate=3000 vbv_bufsize=6000 crf_max=0.0 nal_hrd=none filler=0 ip_ratio=1.40 aq=1:1.00
[hls muxer @ 000001f6714b2fc0] [Eval @ 0000005b559fe880] Invalid chars '=0' at the end of expression 'temp_file=0'
[hls muxer @ 000001f6714b2fc0] Unable to parse option value "temp_file=0+split_by_time"
[hls muxer @ 000001f6714b2fc0] Error setting option hls_flags to value independent_segments+append_list+program_date_time+temp_file=0+split_by_time.
[out#0/hls @ 000001f6711fd040] Could not write header (incorrect codec parameters ?): Invalid argument
[vf#0:0 @ 000001f671200ac0] Error sending frames to consumers: Invalid argument
[vf#0:0 @ 000001f671200ac0] Task finished with error code: -22 (Invalid argument)
[vf#0:0 @ 000001f671200ac0] Terminating thread with return code -22 (Invalid argument)
[out#0/hls @ 000001f6711fd040] Nothing was written into output file, because at least one of its streams received no packets.
frame=    0 fps=0.0 q=0.0 Lsize=       0KiB time=N/A bitrate=N/A speed=N/A elapsed=0:00:00.14    
[aac @ 000001f67142b300] Qavg: 1203.715
Conversion failed!

=== START BUFFER 2025-08-13T13:58:27.832201 | ch=16 ===
Input #0, mpegts, from 'http://darkteam.vip:80/mo2@urute/36108548036242/445376':
  Duration: N/A, start: 330.533878, bitrate: N/A
  Program 1 
    Metadata:
      service_name    : Service01
      service_provider: FFmpeg
  Stream #0:0[0x100]: Video: h264 (High) ([27][0][0][0] / 0x001B), yuv420p(progressive), 1920x1080 [SAR 1:1 DAR 16:9], 30 fps, 30 tbr, 90k tbn, start 330.600000
  Stream #0:1[0x101](und): Audio: aac (LC) ([15][0][0][0] / 0x000F), 44100 Hz, mono, fltp, 67 kb/s, start 330.533878
Stream mapping:
  Stream #0:0 -> #0:0 (h264 (native) -> h264 (libx264))
  Stream #0:1 -> #0:1 (aac (native) -> aac (native))
[libx264 @ 0000025a9883d0c0] using SAR=1/1
[libx264 @ 0000025a9883d0c0] using cpu capabilities: MMX2 SSE2Fast SSSE3 SSE4.2 AVX
[libx264 @ 0000025a9883d0c0] profile High, level 4.0, 4:2:0, 8-bit
[libx264 @ 0000025a9883d0c0] 264 - core 165 r3222 b35605a - H.264/MPEG-4 AVC codec - Copyleft 2003-2025 - http://www.videolan.org/x264.html - options: cabac=1 ref=1 deblock=1:0:0 analyse=0x3:0x113 me=hex subme=2 psy=1 psy_rd=1.00:0.00 mixed_ref=0 me_range=16 chroma_me=1 trellis=0 8x8dct=1 cqm=0 deadzone=21,11 fast_pskip=1 chroma_qp_offset=0 threads=34 lookahead_threads=8 sliced_threads=0 nr=0 decimate=1 interlaced=0 bluray_compat=0 constrained_intra=0 bframes=3 b_pyramid=2 b_adapt=1 b_bias=0 direct=1 weightb=1 open_gop=0 weightp=1 keyint=250 keyint_min=25 scenecut=40 intra_refresh=0 rc_lookahead=10 rc=crf mbtree=1 crf=23.0 qcomp=0.60 qpmin=0 qpmax=69 qpstep=4 vbv_maxrate=3000 vbv_bufsize=6000 crf_max=0.0 nal_hrd=none filler=0 ip_ratio=1.40 aq=1:1.00
[hls muxer @ 0000025a9ad7c580] [Eval @ 00000093f45fe1e0] Invalid chars '=0' at the end of expression 'temp_file=0'
[hls muxer @ 0000025a9ad7c580] Unable to parse option value "temp_file=0+split_by_time"
[hls muxer @ 0000025a9ad7c580] Error setting option hls_flags to value independent_segments+append_list+program_date_time+temp_file=0+split_by_time.
[out#0/hls @ 0000025a9aefeb80] Could not write header (incorrect codec parameters ?): Invalid argument
[vf#0:0 @ 0000025a9882e000] Error sending frames to consumers: Invalid argument
[vf#0:0 @ 0000025a9882e000] Task finished with error code: -22 (Invalid argument)
[vf#0:0 @ 0000025a9882e000] Terminating thread with return code -22 (Invalid argument)
[out#0/hls @ 0000025a9aefeb80] Nothing was written into output file, because at least one of its streams received no packets.
frame=    0 fps=0.0 q=0.0 Lsize=       0KiB time=N/A bitrate=N/A speed=N/A elapsed=0:00:00.15    
[aac @ 0000025a9bcab040] Qavg: 811.677
Conversion failed!

=== START BUFFER 2025-08-13T13:58:32.208285 | ch=16 ===
Input #0, mpegts, from 'http://darkteam.vip:80/mo2@urute/36108548036242/445376':
  Duration: N/A, start: 330.533878, bitrate: N/A
  Program 1 
    Metadata:
      service_name    : Service01
      service_provider: FFmpeg
  Stream #0:0[0x100]: Video: h264 (High) ([27][0][0][0] / 0x001B), yuv420p(progressive), 1920x1080 [SAR 1:1 DAR 16:9], 30 fps, 30 tbr, 90k tbn, start 330.600000
  Stream #0:1[0x101](und): Audio: aac (LC) ([15][0][0][0] / 0x000F), 44100 Hz, mono, fltp, 67 kb/s, start 330.533878
Stream mapping:
  Stream #0:0 -> #0:0 (h264 (native) -> h264 (libx264))
  Stream #0:1 -> #0:1 (aac (native) -> aac (native))
[libx264 @ 0000025ce16fd0c0] using SAR=1/1
[libx264 @ 0000025ce16fd0c0] using cpu capabilities: MMX2 SSE2Fast SSSE3 SSE4.2 AVX
[libx264 @ 0000025ce16fd0c0] profile High, level 4.0, 4:2:0, 8-bit
[libx264 @ 0000025ce16fd0c0] 264 - core 165 r3222 b35605a - H.264/MPEG-4 AVC codec - Copyleft 2003-2025 - http://www.videolan.org/x264.html - options: cabac=1 ref=1 deblock=1:0:0 analyse=0x3:0x113 me=hex subme=2 psy=1 psy_rd=1.00:0.00 mixed_ref=0 me_range=16 chroma_me=1 trellis=0 8x8dct=1 cqm=0 deadzone=21,11 fast_pskip=1 chroma_qp_offset=0 threads=34 lookahead_threads=8 sliced_threads=0 nr=0 decimate=1 interlaced=0 bluray_compat=0 constrained_intra=0 bframes=3 b_pyramid=2 b_adapt=1 b_bias=0 direct=1 weightb=1 open_gop=0 weightp=1 keyint=250 keyint_min=25 scenecut=40 intra_refresh=0 rc_lookahead=10 rc=crf mbtree=1 crf=23.0 qcomp=0.60 qpmin=0 qpmax=69 qpstep=4 vbv_maxrate=3000 vbv_bufsize=6000 crf_max=0.0 nal_hrd=none filler=0 ip_ratio=1.40 aq=1:1.00
[hls muxer @ 0000025ce20fc580] [Eval @ 0000009f827fe850] Invalid chars '=0' at the end of expression 'temp_file=0'
[hls muxer @ 0000025ce20fc580] Unable to parse option value "temp_file=0+split_by_time"
[hls muxer @ 0000025ce20fc580] Error setting option hls_flags to value independent_segments+append_list+program_date_time+temp_file=0+split_by_time.
[out#0/hls @ 0000025ce227eb80] Could not write header (incorrect codec parameters ?): Invalid argument
[vf#0:0 @ 0000025ce16ee000] Error sending frames to consumers: Invalid argument
[vf#0:0 @ 0000025ce16ee000] Task finished with error code: -22 (Invalid argument)
[vf#0:0 @ 0000025ce16ee000] Terminating thread with return code -22 (Invalid argument)
[out#0/hls @ 0000025ce227eb80] Nothing was written into output file, because at least one of its streams received no packets.
frame=    0 fps=0.0 q=0.0 Lsize=       0KiB time=N/A bitrate=N/A speed=N/A elapsed=0:00:00.14    
[aac @ 0000025ce3028b40] Qavg: 811.677
Conversion failed!

=== START BUFFER 2025-08-13T13:58:36.583789 | ch=16 ===
Input #0, mpegts, from 'http://darkteam.vip:80/mo2@urute/36108548036242/445376':
  Duration: N/A, start: 342.608567, bitrate: N/A
  Program 1 
    Metadata:
      service_name    : Service01
      service_provider: FFmpeg
  Stream #0:0[0x100]: Video: h264 (High) ([27][0][0][0] / 0x001B), yuv420p(progressive), 1920x1080 [SAR 1:1 DAR 16:9], 30 fps, 30 tbr, 90k tbn, start 342.666667
  Stream #0:1[0x101](und): Audio: aac (LC) ([15][0][0][0] / 0x000F), 44100 Hz, mono, fltp, 66 kb/s, start 342.608567
Stream mapping:
  Stream #0:0 -> #0:0 (h264 (native) -> h264 (libx264))
  Stream #0:1 -> #0:1 (aac (native) -> aac (native))
[libx264 @ 000001714a9000c0] using SAR=1/1
[libx264 @ 000001714a9000c0] using cpu capabilities: MMX2 SSE2Fast SSSE3 SSE4.2 AVX
[libx264 @ 000001714a9000c0] profile High, level 4.0, 4:2:0, 8-bit
[libx264 @ 000001714a9000c0] 264 - core 165 r3222 b35605a - H.264/MPEG-4 AVC codec - Copyleft 2003-2025 - http://www.videolan.org/x264.html - options: cabac=1 ref=1 deblock=1:0:0 analyse=0x3:0x113 me=hex subme=2 psy=1 psy_rd=1.00:0.00 mixed_ref=0 me_range=16 chroma_me=1 trellis=0 8x8dct=1 cqm=0 deadzone=21,11 fast_pskip=1 chroma_qp_offset=0 threads=34 lookahead_threads=8 sliced_threads=0 nr=0 decimate=1 interlaced=0 bluray_compat=0 constrained_intra=0 bframes=3 b_pyramid=2 b_adapt=1 b_bias=0 direct=1 weightb=1 open_gop=0 weightp=1 keyint=250 keyint_min=25 scenecut=40 intra_refresh=0 rc_lookahead=10 rc=crf mbtree=1 crf=23.0 qcomp=0.60 qpmin=0 qpmax=69 qpstep=4 vbv_maxrate=3000 vbv_bufsize=6000 crf_max=0.0 nal_hrd=none filler=0 ip_ratio=1.40 aq=1:1.00
[hls muxer @ 000001714abc5500] [Eval @ 0000003e6c3fe2f0] Invalid chars '=0' at the end of expression 'temp_file=0'
[hls muxer @ 000001714abc5500] Unable to parse option value "temp_file=0+split_by_time"
[hls muxer @ 000001714abc5500] Error setting option hls_flags to value independent_segments+append_list+program_date_time+temp_file=0+split_by_time.
[out#0/hls @ 0000017149f84640] Could not write header (incorrect codec parameters ?): Invalid argument
[vf#0:0 @ 000001714a900ac0] Error sending frames to consumers: Invalid argument
[vf#0:0 @ 000001714a900ac0] Task finished with error code: -22 (Invalid argument)
[vf#0:0 @ 000001714a900ac0] Terminating thread with return code -22 (Invalid argument)
[out#0/hls @ 0000017149f84640] Nothing was written into output file, because at least one of its streams received no packets.
frame=    0 fps=0.0 q=0.0 Lsize=       0KiB time=N/A bitrate=N/A speed=N/A elapsed=0:00:00.15    
[aac @ 000001714ab2ad80] Qavg: 64213.391
Conversion failed!

=== START BUFFER 2025-08-13T13:58:45.326147 | ch=16 ===
Input #0, mpegts, from 'http://darkteam.vip:80/mo2@urute/36108548036242/445376':
  Duration: N/A, start: 342.608567, bitrate: N/A
  Program 1 
    Metadata:
      service_name    : Service01
      service_provider: FFmpeg
  Stream #0:0[0x100]: Video: h264 (High) ([27][0][0][0] / 0x001B), yuv420p(progressive), 1920x1080 [SAR 1:1 DAR 16:9], 30 fps, 30 tbr, 90k tbn, start 342.666667
  Stream #0:1[0x101](und): Audio: aac (LC) ([15][0][0][0] / 0x000F), 44100 Hz, mono, fltp, 66 kb/s, start 342.608567
Stream mapping:
  Stream #0:0 -> #0:0 (h264 (native) -> h264 (libx264))
  Stream #0:1 -> #0:1 (aac (native) -> aac (native))
[libx264 @ 000002ac694d00c0] using SAR=1/1
[libx264 @ 000002ac694d00c0] using cpu capabilities: MMX2 SSE2Fast SSSE3 SSE4.2 AVX
[libx264 @ 000002ac694d00c0] profile High, level 4.0, 4:2:0, 8-bit
[libx264 @ 000002ac694d00c0] 264 - core 165 r3222 b35605a - H.264/MPEG-4 AVC codec - Copyleft 2003-2025 - http://www.videolan.org/x264.html - options: cabac=1 ref=1 deblock=1:0:0 analyse=0x3:0x113 me=hex subme=2 psy=1 psy_rd=1.00:0.00 mixed_ref=0 me_range=16 chroma_me=1 trellis=0 8x8dct=1 cqm=0 deadzone=21,11 fast_pskip=1 chroma_qp_offset=0 threads=34 lookahead_threads=8 sliced_threads=0 nr=0 decimate=1 interlaced=0 bluray_compat=0 constrained_intra=0 bframes=3 b_pyramid=2 b_adapt=1 b_bias=0 direct=1 weightb=1 open_gop=0 weightp=1 keyint=250 keyint_min=25 scenecut=40 intra_refresh=0 rc_lookahead=10 rc=crf mbtree=1 crf=23.0 qcomp=0.60 qpmin=0 qpmax=69 qpstep=4 vbv_maxrate=3000 vbv_bufsize=6000 crf_max=0.0 nal_hrd=none filler=0 ip_ratio=1.40 aq=1:1.00
[hls muxer @ 000002ac69795500] [Eval @ 000000fe70bfe310] Invalid chars '=0' at the end of expression 'temp_file=0'
[hls muxer @ 000002ac69795500] Unable to parse option value "temp_file=0+split_by_time"
[hls muxer @ 000002ac69795500] Error setting option hls_flags to value independent_segments+append_list+program_date_time+temp_file=0+split_by_time.
[out#0/hls @ 000002ac68d34640] Could not write header (incorrect codec parameters ?): Invalid argument
[vf#0:0 @ 000002ac694d0ac0] Error sending frames to consumers: Invalid argument
[vf#0:0 @ 000002ac694d0ac0] Task finished with error code: -22 (Invalid argument)
[vf#0:0 @ 000002ac694d0ac0] Terminating thread with return code -22 (Invalid argument)
[out#0/hls @ 000002ac68d34640] Nothing was written into output file, because at least one of its streams received no packets.
frame=    0 fps=0.0 q=0.0 Lsize=       0KiB time=N/A bitrate=N/A speed=N/A elapsed=0:00:00.15    
[aac @ 000002ac696f9780] Qavg: 64213.391
Conversion failed!

=== START BUFFER 2025-08-13T13:58:49.702020 | ch=16 ===
Input #0, mpegts, from 'http://darkteam.vip:80/mo2@urute/36108548036242/445376':
  Duration: N/A, start: 350.549478, bitrate: N/A
  Program 1 
    Metadata:
      service_name    : Service01
      service_provider: FFmpeg
  Stream #0:0[0x100]: Video: h264 (High) ([27][0][0][0] / 0x001B), yuv420p(progressive), 1920x1080 [SAR 1:1 DAR 16:9], 30 fps, 30 tbr, 90k tbn, start 350.600000
  Stream #0:1[0x101](und): Audio: aac (LC) ([15][0][0][0] / 0x000F), 44100 Hz, mono, fltp, 66 kb/s, start 350.549478
Stream mapping:
  Stream #0:0 -> #0:0 (h264 (native) -> h264 (libx264))
  Stream #0:1 -> #0:1 (aac (native) -> aac (native))
[libx264 @ 000002803e5e0500] using SAR=1/1
[libx264 @ 000002803e5e0500] using cpu capabilities: MMX2 SSE2Fast SSSE3 SSE4.2 AVX
[libx264 @ 000002803e5e0500] profile High, level 4.0, 4:2:0, 8-bit
[libx264 @ 000002803e5e0500] 264 - core 165 r3222 b35605a - H.264/MPEG-4 AVC codec - Copyleft 2003-2025 - http://www.videolan.org/x264.html - options: cabac=1 ref=1 deblock=1:0:0 analyse=0x3:0x113 me=hex subme=2 psy=1 psy_rd=1.00:0.00 mixed_ref=0 me_range=16 chroma_me=1 trellis=0 8x8dct=1 cqm=0 deadzone=21,11 fast_pskip=1 chroma_qp_offset=0 threads=34 lookahead_threads=8 sliced_threads=0 nr=0 decimate=1 interlaced=0 bluray_compat=0 constrained_intra=0 bframes=3 b_pyramid=2 b_adapt=1 b_bias=0 direct=1 weightb=1 open_gop=0 weightp=1 keyint=250 keyint_min=25 scenecut=40 intra_refresh=0 rc_lookahead=10 rc=crf mbtree=1 crf=23.0 qcomp=0.60 qpmin=0 qpmax=69 qpstep=4 vbv_maxrate=3000 vbv_bufsize=6000 crf_max=0.0 nal_hrd=none filler=0 ip_ratio=1.40 aq=1:1.00
[hls muxer @ 000002803e8c5600] [Eval @ 000000a07fdfe320] Invalid chars '=0' at the end of expression 'temp_file=0'
[hls muxer @ 000002803e8c5600] Unable to parse option value "temp_file=0+split_by_time"
[hls muxer @ 000002803e8c5600] Error setting option hls_flags to value independent_segments+append_list+program_date_time+temp_file=0+split_by_time.
[out#0/hls @ 000002803dc4e000] Could not write header (incorrect codec parameters ?): Invalid argument
[vf#0:0 @ 000002803e4ce9c0] Error sending frames to consumers: Invalid argument
[vf#0:0 @ 000002803e4ce9c0] Task finished with error code: -22 (Invalid argument)
[vf#0:0 @ 000002803e4ce9c0] Terminating thread with return code -22 (Invalid argument)
[out#0/hls @ 000002803dc4e000] Nothing was written into output file, because at least one of its streams received no packets.
frame=    0 fps=0.0 q=0.0 Lsize=       0KiB time=N/A bitrate=N/A speed=N/A elapsed=0:00:00.15    
[aac @ 000002803f2a3c40] Qavg: 603.805
Conversion failed!

=== START BUFFER 2025-08-13T13:58:54.071038 | ch=16 ===
Input #0, mpegts, from 'http://darkteam.vip:80/mo2@urute/36108548036242/445376':
  Duration: N/A, start: 350.549478, bitrate: N/A
  Program 1 
    Metadata:
      service_name    : Service01
      service_provider: FFmpeg
  Stream #0:0[0x100]: Video: h264 (High) ([27][0][0][0] / 0x001B), yuv420p(progressive), 1920x1080 [SAR 1:1 DAR 16:9], 30 fps, 30 tbr, 90k tbn, start 350.600000
  Stream #0:1[0x101](und): Audio: aac (LC) ([15][0][0][0] / 0x000F), 44100 Hz, mono, fltp, 66 kb/s, start 350.549478
Stream mapping:
  Stream #0:0 -> #0:0 (h264 (native) -> h264 (libx264))
  Stream #0:1 -> #0:1 (aac (native) -> aac (native))
[libx264 @ 000001737b450500] using SAR=1/1
[libx264 @ 000001737b450500] using cpu capabilities: MMX2 SSE2Fast SSSE3 SSE4.2 AVX
[libx264 @ 000001737b450500] profile High, level 4.0, 4:2:0, 8-bit
[libx264 @ 000001737b450500] 264 - core 165 r3222 b35605a - H.264/MPEG-4 AVC codec - Copyleft 2003-2025 - http://www.videolan.org/x264.html - options: cabac=1 ref=1 deblock=1:0:0 analyse=0x3:0x113 me=hex subme=2 psy=1 psy_rd=1.00:0.00 mixed_ref=0 me_range=16 chroma_me=1 trellis=0 8x8dct=1 cqm=0 deadzone=21,11 fast_pskip=1 chroma_qp_offset=0 threads=34 lookahead_threads=8 sliced_threads=0 nr=0 decimate=1 interlaced=0 bluray_compat=0 constrained_intra=0 bframes=3 b_pyramid=2 b_adapt=1 b_bias=0 direct=1 weightb=1 open_gop=0 weightp=1 keyint=250 keyint_min=25 scenecut=40 intra_refresh=0 rc_lookahead=10 rc=crf mbtree=1 crf=23.0 qcomp=0.60 qpmin=0 qpmax=69 qpstep=4 vbv_maxrate=3000 vbv_bufsize=6000 crf_max=0.0 nal_hrd=none filler=0 ip_ratio=1.40 aq=1:1.00
[hls muxer @ 000001737b735600] [Eval @ 0000001bccffe420] Invalid chars '=0' at the end of expression 'temp_file=0'
[hls muxer @ 000001737b735600] Unable to parse option value "temp_file=0+split_by_time"
[hls muxer @ 000001737b735600] Error setting option hls_flags to value independent_segments+append_list+program_date_time+temp_file=0+split_by_time.
[out#0/hls @ 000001737ab0e000] Could not write header (incorrect codec parameters ?): Invalid argument
[vf#0:0 @ 000001737b33e9c0] Error sending frames to consumers: Invalid argument
[vf#0:0 @ 000001737b33e9c0] Task finished with error code: -22 (Invalid argument)
[vf#0:0 @ 000001737b33e9c0] Terminating thread with return code -22 (Invalid argument)
[out#0/hls @ 000001737ab0e000] Nothing was written into output file, because at least one of its streams received no packets.
frame=    0 fps=0.0 q=0.0 Lsize=       0KiB time=N/A bitrate=N/A speed=N/A elapsed=0:00:00.15    
[aac @ 000001737c103c40] Qavg: 603.805
Conversion failed!

=== START BUFFER 2025-08-13T13:59:00.634010 | ch=16 ===
Input #0, mpegts, from 'http://darkteam.vip:80/mo2@urute/36108548036242/445376':
  Duration: N/A, start: 363.343678, bitrate: N/A
  Program 1 
    Metadata:
      service_name    : Service01
      service_provider: FFmpeg
  Stream #0:0[0x100]: Video: h264 (High) ([27][0][0][0] / 0x001B), yuv420p(progressive), 1920x1080 [SAR 1:1 DAR 16:9], 30 fps, 30 tbr, 90k tbn, start 363.400000
  Stream #0:1[0x101](und): Audio: aac (LC) ([15][0][0][0] / 0x000F), 44100 Hz, mono, fltp, 66 kb/s, start 363.343678
Stream mapping:
  Stream #0:0 -> #0:0 (h264 (native) -> h264 (libx264))
  Stream #0:1 -> #0:1 (aac (native) -> aac (native))
[libx264 @ 000002070e220b00] using SAR=1/1
[libx264 @ 000002070e220b00] using cpu capabilities: MMX2 SSE2Fast SSSE3 SSE4.2 AVX
[libx264 @ 000002070e220b00] profile High, level 4.0, 4:2:0, 8-bit
[libx264 @ 000002070e220b00] 264 - core 165 r3222 b35605a - H.264/MPEG-4 AVC codec - Copyleft 2003-2025 - http://www.videolan.org/x264.html - options: cabac=1 ref=1 deblock=1:0:0 analyse=0x3:0x113 me=hex subme=2 psy=1 psy_rd=1.00:0.00 mixed_ref=0 me_range=16 chroma_me=1 trellis=0 8x8dct=1 cqm=0 deadzone=21,11 fast_pskip=1 chroma_qp_offset=0 threads=34 lookahead_threads=8 sliced_threads=0 nr=0 decimate=1 interlaced=0 bluray_compat=0 constrained_intra=0 bframes=3 b_pyramid=2 b_adapt=1 b_bias=0 direct=1 weightb=1 open_gop=0 weightp=1 keyint=250 keyint_min=25 scenecut=40 intra_refresh=0 rc_lookahead=10 rc=crf mbtree=1 crf=23.0 qcomp=0.60 qpmin=0 qpmax=69 qpstep=4 vbv_maxrate=3000 vbv_bufsize=6000 crf_max=0.0 nal_hrd=none filler=0 ip_ratio=1.40 aq=1:1.00
[hls muxer @ 000002070d0eed40] [Eval @ 000000fd52dfe780] Invalid chars '=0' at the end of expression 'temp_file=0'
[hls muxer @ 000002070d0eed40] Unable to parse option value "temp_file=0+split_by_time"
[hls muxer @ 000002070d0eed40] Error setting option hls_flags to value independent_segments+append_list+program_date_time+temp_file=0+split_by_time.
[out#0/hls @ 000002070d19eec0] Could not write header (incorrect codec parameters ?): Invalid argument
[vf#0:0 @ 000002070d0fe0c0] Error sending frames to consumers: Invalid argument
[vf#0:0 @ 000002070d0fe0c0] Task finished with error code: -22 (Invalid argument)
[vf#0:0 @ 000002070d0fe0c0] Terminating thread with return code -22 (Invalid argument)
[out#0/hls @ 000002070d19eec0] Nothing was written into output file, because at least one of its streams received no packets.
frame=    0 fps=0.0 q=0.0 Lsize=       0KiB time=N/A bitrate=N/A speed=N/A elapsed=0:00:00.14    
[aac @ 000002070daaa800] Qavg: 1028.326
Conversion failed!

=== START BUFFER 2025-08-13T13:59:05.013043 | ch=16 ===
Input #0, mpegts, from 'http://darkteam.vip:80/mo2@urute/36108548036242/445376':
  Duration: N/A, start: 363.343678, bitrate: N/A
  Program 1 
    Metadata:
      service_name    : Service01
      service_provider: FFmpeg
  Stream #0:0[0x100]: Video: h264 (High) ([27][0][0][0] / 0x001B), yuv420p(progressive), 1920x1080 [SAR 1:1 DAR 16:9], 30 fps, 30 tbr, 90k tbn, start 363.400000
  Stream #0:1[0x101](und): Audio: aac (LC) ([15][0][0][0] / 0x000F), 44100 Hz, mono, fltp, 66 kb/s, start 363.343678
Stream mapping:
  Stream #0:0 -> #0:0 (h264 (native) -> h264 (libx264))
  Stream #0:1 -> #0:1 (aac (native) -> aac (native))
[libx264 @ 0000023ec8260b00] using SAR=1/1
[libx264 @ 0000023ec8260b00] using cpu capabilities: MMX2 SSE2Fast SSSE3 SSE4.2 AVX
[libx264 @ 0000023ec8260b00] profile High, level 4.0, 4:2:0, 8-bit
[libx264 @ 0000023ec8260b00] 264 - core 165 r3222 b35605a - H.264/MPEG-4 AVC codec - Copyleft 2003-2025 - http://www.videolan.org/x264.html - options: cabac=1 ref=1 deblock=1:0:0 analyse=0x3:0x113 me=hex subme=2 psy=1 psy_rd=1.00:0.00 mixed_ref=0 me_range=16 chroma_me=1 trellis=0 8x8dct=1 cqm=0 deadzone=21,11 fast_pskip=1 chroma_qp_offset=0 threads=34 lookahead_threads=8 sliced_threads=0 nr=0 decimate=1 interlaced=0 bluray_compat=0 constrained_intra=0 bframes=3 b_pyramid=2 b_adapt=1 b_bias=0 direct=1 weightb=1 open_gop=0 weightp=1 keyint=250 keyint_min=25 scenecut=40 intra_refresh=0 rc_lookahead=10 rc=crf mbtree=1 crf=23.0 qcomp=0.60 qpmin=0 qpmax=69 qpstep=4 vbv_maxrate=3000 vbv_bufsize=6000 crf_max=0.0 nal_hrd=none filler=0 ip_ratio=1.40 aq=1:1.00
[hls muxer @ 0000023ec712ed40] [Eval @ 0000005c125fe510] Invalid chars '=0' at the end of expression 'temp_file=0'
[hls muxer @ 0000023ec712ed40] Unable to parse option value "temp_file=0+split_by_time"
[hls muxer @ 0000023ec712ed40] Error setting option hls_flags to value independent_segments+append_list+program_date_time+temp_file=0+split_by_time.
[out#0/hls @ 0000023ec71deec0] Could not write header (incorrect codec parameters ?): Invalid argument
[vf#0:0 @ 0000023ec713e0c0] Error sending frames to consumers: Invalid argument
[vf#0:0 @ 0000023ec713e0c0] Task finished with error code: -22 (Invalid argument)
[vf#0:0 @ 0000023ec713e0c0] Terminating thread with return code -22 (Invalid argument)
[out#0/hls @ 0000023ec71deec0] Nothing was written into output file, because at least one of its streams received no packets.
frame=    0 fps=0.0 q=0.0 Lsize=       0KiB time=N/A bitrate=N/A speed=N/A elapsed=0:00:00.14    
[aac @ 0000023ec7ae9d00] Qavg: 1028.326
Conversion failed!

=== START BUFFER 2025-08-13T13:59:13.750450 | ch=16 ===
Input #0, mpegts, from 'http://darkteam.vip:80/mo2@urute/36108548036242/445376':
  Duration: N/A, start: 370.309656, bitrate: N/A
  Program 1 
    Metadata:
      service_name    : Service01
      service_provider: FFmpeg
  Stream #0:0[0x100]: Video: h264 (High) ([27][0][0][0] / 0x001B), yuv420p(progressive), 1920x1080 [SAR 1:1 DAR 16:9], 30 fps, 30 tbr, 90k tbn, start 370.366667
  Stream #0:1[0x101](und): Audio: aac (LC) ([15][0][0][0] / 0x000F), 44100 Hz, mono, fltp, 67 kb/s, start 370.309656
Stream mapping:
  Stream #0:0 -> #0:0 (h264 (native) -> h264 (libx264))
  Stream #0:1 -> #0:1 (aac (native) -> aac (native))
[libx264 @ 000001da7fd5b380] using SAR=1/1
[libx264 @ 000001da7fd5b380] using cpu capabilities: MMX2 SSE2Fast SSSE3 SSE4.2 AVX
[libx264 @ 000001da7fd5b380] profile High, level 4.0, 4:2:0, 8-bit
[libx264 @ 000001da7fd5b380] 264 - core 165 r3222 b35605a - H.264/MPEG-4 AVC codec - Copyleft 2003-2025 - http://www.videolan.org/x264.html - options: cabac=1 ref=1 deblock=1:0:0 analyse=0x3:0x113 me=hex subme=2 psy=1 psy_rd=1.00:0.00 mixed_ref=0 me_range=16 chroma_me=1 trellis=0 8x8dct=1 cqm=0 deadzone=21,11 fast_pskip=1 chroma_qp_offset=0 threads=34 lookahead_threads=8 sliced_threads=0 nr=0 decimate=1 interlaced=0 bluray_compat=0 constrained_intra=0 bframes=3 b_pyramid=2 b_adapt=1 b_bias=0 direct=1 weightb=1 open_gop=0 weightp=1 keyint=250 keyint_min=25 scenecut=40 intra_refresh=0 rc_lookahead=10 rc=crf mbtree=1 crf=23.0 qcomp=0.60 qpmin=0 qpmax=69 qpstep=4 vbv_maxrate=3000 vbv_bufsize=6000 crf_max=0.0 nal_hrd=none filler=0 ip_ratio=1.40 aq=1:1.00
[hls muxer @ 000001da00a978c0] [Eval @ 00000073ff1fe500] Invalid chars '=0' at the end of expression 'temp_file=0'
[hls muxer @ 000001da00a978c0] Unable to parse option value "temp_file=0+split_by_time"
[hls muxer @ 000001da00a978c0] Error setting option hls_flags to value independent_segments+append_list+program_date_time+temp_file=0+split_by_time.
[out#0/hls @ 000001da7dfbe800] Could not write header (incorrect codec parameters ?): Invalid argument
[vf#0:0 @ 000001da7fc440c0] Error sending frames to consumers: Invalid argument
[vf#0:0 @ 000001da7fc440c0] Task finished with error code: -22 (Invalid argument)
[vf#0:0 @ 000001da7fc440c0] Terminating thread with return code -22 (Invalid argument)
[out#0/hls @ 000001da7dfbe800] Nothing was written into output file, because at least one of its streams received no packets.
frame=    0 fps=0.0 q=0.0 Lsize=       0KiB time=N/A bitrate=N/A speed=N/A elapsed=0:00:00.15    
[aac @ 000001da00fa3b40] Qavg: 21903.605
Conversion failed!

=== START BUFFER 2025-08-13T13:59:18.121091 | ch=16 ===
Input #0, mpegts, from 'http://darkteam.vip:80/mo2@urute/36108548036242/445376':
  Duration: N/A, start: 370.309656, bitrate: N/A
  Program 1 
    Metadata:
      service_name    : Service01
      service_provider: FFmpeg
  Stream #0:0[0x100]: Video: h264 (High) ([27][0][0][0] / 0x001B), yuv420p(progressive), 1920x1080 [SAR 1:1 DAR 16:9], 30 fps, 30 tbr, 90k tbn, start 370.366667
  Stream #0:1[0x101](und): Audio: aac (LC) ([15][0][0][0] / 0x000F), 44100 Hz, mono, fltp, 67 kb/s, start 370.309656
Stream mapping:
  Stream #0:0 -> #0:0 (h264 (native) -> h264 (libx264))
  Stream #0:1 -> #0:1 (aac (native) -> aac (native))
[libx264 @ 0000024034f4b380] using SAR=1/1
[libx264 @ 0000024034f4b380] using cpu capabilities: MMX2 SSE2Fast SSSE3 SSE4.2 AVX
[libx264 @ 0000024034f4b380] profile High, level 4.0, 4:2:0, 8-bit
[libx264 @ 0000024034f4b380] 264 - core 165 r3222 b35605a - H.264/MPEG-4 AVC codec - Copyleft 2003-2025 - http://www.videolan.org/x264.html - options: cabac=1 ref=1 deblock=1:0:0 analyse=0x3:0x113 me=hex subme=2 psy=1 psy_rd=1.00:0.00 mixed_ref=0 me_range=16 chroma_me=1 trellis=0 8x8dct=1 cqm=0 deadzone=21,11 fast_pskip=1 chroma_qp_offset=0 threads=34 lookahead_threads=8 sliced_threads=0 nr=0 decimate=1 interlaced=0 bluray_compat=0 constrained_intra=0 bframes=3 b_pyramid=2 b_adapt=1 b_bias=0 direct=1 weightb=1 open_gop=0 weightp=1 keyint=250 keyint_min=25 scenecut=40 intra_refresh=0 rc_lookahead=10 rc=crf mbtree=1 crf=23.0 qcomp=0.60 qpmin=0 qpmax=69 qpstep=4 vbv_maxrate=3000 vbv_bufsize=6000 crf_max=0.0 nal_hrd=none filler=0 ip_ratio=1.40 aq=1:1.00
[hls muxer @ 00000240357278c0] [Eval @ 0000006b86bfe690] Invalid chars '=0' at the end of expression 'temp_file=0'
[hls muxer @ 00000240357278c0] Unable to parse option value "temp_file=0+split_by_time"
[hls muxer @ 00000240357278c0] Error setting option hls_flags to value independent_segments+append_list+program_date_time+temp_file=0+split_by_time.
[out#0/hls @ 0000024032cfe800] Could not write header (incorrect codec parameters ?): Invalid argument
[vf#0:0 @ 0000024034e340c0] Error sending frames to consumers: Invalid argument
[vf#0:0 @ 0000024034e340c0] Task finished with error code: -22 (Invalid argument)
[vf#0:0 @ 0000024034e340c0] Terminating thread with return code -22 (Invalid argument)
[out#0/hls @ 0000024032cfe800] Nothing was written into output file, because at least one of its streams received no packets.
frame=    0 fps=0.0 q=0.0 Lsize=       0KiB time=N/A bitrate=N/A speed=N/A elapsed=0:00:00.15    
[aac @ 0000024035c34680] Qavg: 21903.605
Conversion failed!

=== START BUFFER 2025-08-13T13:59:22.497791 | ch=16 ===

=== START BUFFER 2025-08-13T13:59:44.860537 | ch=16 ===
Input #0, mpegts, from 'http://darkteam.vip:80/mo2@urute/36108548036242/445376':
  Duration: N/A, start: 400.309844, bitrate: N/A
  Program 1 
    Metadata:
      service_name    : Service01
      service_provider: FFmpeg
  Stream #0:0[0x100]: Video: h264 (High) ([27][0][0][0] / 0x001B), yuv420p(progressive), 1920x1080 [SAR 1:1 DAR 16:9], 30 fps, 30 tbr, 90k tbn, start 400.366667
  Stream #0:1[0x101](und): Audio: aac (LC) ([15][0][0][0] / 0x000F), 44100 Hz, mono, fltp, 66 kb/s, start 400.309844
Stream mapping:
  Stream #0:0 -> #0:0 (h264 (native) -> h264 (libx264))
  Stream #0:1 -> #0:1 (aac (native) -> aac (native))

=== START BUFFER 2025-08-13T14:00:07.220046 | ch=16 ===
Input #0, mpegts, from 'http://darkteam.vip:80/mo2@urute/36108548036242/445376':
  Duration: N/A, start: 420.883378, bitrate: N/A
  Program 1 
    Metadata:
      service_name    : Service01
      service_provider: FFmpeg
  Stream #0:0[0x100]: Video: h264 (High) ([27][0][0][0] / 0x001B), yuv420p(progressive), 1920x1080 [SAR 1:1 DAR 16:9], 30 fps, 30 tbr, 90k tbn, start 420.933333
  Stream #0:1[0x101](und): Audio: aac (LC) ([15][0][0][0] / 0x000F), 44100 Hz, mono, fltp, 67 kb/s, start 420.883378
Stream mapping:
  Stream #0:0 -> #0:0 (h264 (native) -> h264 (libx264))
  Stream #0:1 -> #0:1 (aac (native) -> aac (native))
[libx264 @ 0000026315894640] using SAR=1/1
[libx264 @ 0000026315894640] using cpu capabilities: MMX2 SSE2Fast SSSE3 SSE4.2 AVX
[libx264 @ 0000026315894640] profile High, level 4.0, 4:2:0, 8-bit
[libx264 @ 0000026315894640] 264 - core 165 r3222 b35605a - H.264/MPEG-4 AVC codec - Copyleft 2003-2025 - http://www.videolan.org/x264.html - options: cabac=1 ref=1 deblock=1:0:0 analyse=0x3:0x113 me=hex subme=2 psy=1 psy_rd=1.00:0.00 mixed_ref=0 me_range=16 chroma_me=1 trellis=0 8x8dct=1 cqm=0 deadzone=21,11 fast_pskip=1 chroma_qp_offset=0 threads=34 lookahead_threads=8 sliced_threads=0 nr=0 decimate=1 interlaced=0 bluray_compat=0 constrained_intra=0 bframes=3 b_pyramid=2 b_adapt=1 b_bias=0 direct=1 weightb=1 open_gop=0 weightp=1 keyint=250 keyint_min=25 scenecut=40 intra_refresh=0 rc_lookahead=10 rc=crf mbtree=1 crf=23.0 qcomp=0.60 qpmin=0 qpmax=69 qpstep=4 vbv_maxrate=3000 vbv_bufsize=6000 crf_max=0.0 nal_hrd=none filler=0 ip_ratio=1.40 aq=1:1.00
[hls muxer @ 0000026315229600] [Eval @ 000000ad8b7fe230] Invalid chars '=0' at the end of expression 'temp_file=0'
[hls muxer @ 0000026315229600] Unable to parse option value "temp_file=0+split_by_time"
[hls muxer @ 0000026315229600] Error setting option hls_flags to value independent_segments+append_list+program_date_time+temp_file=0+split_by_time.
[out#0/hls @ 000002631521e0c0] Could not write header (incorrect codec parameters ?): Invalid argument
[vf#0:0 @ 0000026315894a00] Error sending frames to consumers: Invalid argument
[vf#0:0 @ 0000026315894a00] Task finished with error code: -22 (Invalid argument)
[vf#0:0 @ 0000026315894a00] Terminating thread with return code -22 (Invalid argument)
[out#0/hls @ 000002631521e0c0] Nothing was written into output file, because at least one of its streams received no packets.
frame=    0 fps=0.0 q=0.0 Lsize=       0KiB time=N/A bitrate=N/A speed=N/A elapsed=0:00:00.15    
[aac @ 00000263152bf9c0] Qavg: 53054.055
Conversion failed!

=== START BUFFER 2025-08-13T14:00:13.743279 | ch=16 ===
Input #0, mpegts, from 'http://darkteam.vip:80/mo2@urute/36108548036242/445376':
  Duration: N/A, start: 433.143511, bitrate: N/A
  Program 1 
    Metadata:
      service_name    : Service01
      service_provider: FFmpeg
  Stream #0:0[0x100]: Video: h264 (High) ([27][0][0][0] / 0x001B), yuv420p(progressive), 1920x1080 [SAR 1:1 DAR 16:9], 30 fps, 30 tbr, 90k tbn, start 433.200000
  Stream #0:1[0x101](und): Audio: aac (LC) ([15][0][0][0] / 0x000F), 44100 Hz, mono, fltp, 66 kb/s, start 433.143511
Stream mapping:
  Stream #0:0 -> #0:0 (h264 (native) -> h264 (libx264))
  Stream #0:1 -> #0:1 (aac (native) -> aac (native))
[libx264 @ 0000021ef77af840] using SAR=1/1
[libx264 @ 0000021ef77af840] using cpu capabilities: MMX2 SSE2Fast SSSE3 SSE4.2 AVX
[libx264 @ 0000021ef77af840] profile High, level 4.0, 4:2:0, 8-bit
[libx264 @ 0000021ef77af840] 264 - core 165 r3222 b35605a - H.264/MPEG-4 AVC codec - Copyleft 2003-2025 - http://www.videolan.org/x264.html - options: cabac=1 ref=1 deblock=1:0:0 analyse=0x3:0x113 me=hex subme=2 psy=1 psy_rd=1.00:0.00 mixed_ref=0 me_range=16 chroma_me=1 trellis=0 8x8dct=1 cqm=0 deadzone=21,11 fast_pskip=1 chroma_qp_offset=0 threads=34 lookahead_threads=8 sliced_threads=0 nr=0 decimate=1 interlaced=0 bluray_compat=0 constrained_intra=0 bframes=3 b_pyramid=2 b_adapt=1 b_bias=0 direct=1 weightb=1 open_gop=0 weightp=1 keyint=250 keyint_min=25 scenecut=40 intra_refresh=0 rc_lookahead=10 rc=crf mbtree=1 crf=23.0 qcomp=0.60 qpmin=0 qpmax=69 qpstep=4 vbv_maxrate=3000 vbv_bufsize=6000 crf_max=0.0 nal_hrd=none filler=0 ip_ratio=1.40 aq=1:1.00
[hls muxer @ 0000021ef7e9a400] [Eval @ 00000031595fe510] Invalid chars '=0' at the end of expression 'temp_file=0'
[hls muxer @ 0000021ef7e9a400] Unable to parse option value "temp_file=0+split_by_time"
[hls muxer @ 0000021ef7e9a400] Error setting option hls_flags to value independent_segments+append_list+program_date_time+temp_file=0+split_by_time.
[out#0/hls @ 0000021ef770e000] Could not write header (incorrect codec parameters ?): Invalid argument
[vf#0:0 @ 0000021ef7e9cc80] Error sending frames to consumers: Invalid argument
[vf#0:0 @ 0000021ef7e9cc80] Task finished with error code: -22 (Invalid argument)
[vf#0:0 @ 0000021ef7e9cc80] Terminating thread with return code -22 (Invalid argument)
[out#0/hls @ 0000021ef770e000] Nothing was written into output file, because at least one of its streams received no packets.
frame=    0 fps=0.0 q=0.0 Lsize=       0KiB time=N/A bitrate=N/A speed=N/A elapsed=0:00:00.14    
[aac @ 0000021ef80cb040] Qavg: 427.155
Conversion failed!

=== START BUFFER 2025-08-13T14:00:18.116085 | ch=16 ===

=== START BUFFER 2025-08-13T14:07:34.689380 | ch=16 ===
Input #0, mpegts, from 'http://darkteam.vip:80/mo2@urute/36108548036242/445376':
  Duration: N/A, start: 873.115556, bitrate: N/A
  Program 1 
    Metadata:
      service_name    : Service01
      service_provider: FFmpeg
  Stream #0:0[0x100]: Video: h264 (High) ([27][0][0][0] / 0x001B), yuv420p(progressive), 1920x1080 [SAR 1:1 DAR 16:9], 30 fps, 30 tbr, 90k tbn, start 873.166667
  Stream #0:1[0x101](und): Audio: aac (LC) ([15][0][0][0] / 0x000F), 44100 Hz, mono, fltp, 67 kb/s, start 873.115556
Stream mapping:
  Stream #0:0 -> #0:0 (h264 (native) -> h264 (libx264))
  Stream #0:1 -> #0:1 (aac (native) -> aac (native))
[libx264 @ 0000022f0e74e640] using SAR=1/1
[libx264 @ 0000022f0e74e640] using cpu capabilities: MMX2 SSE2Fast SSSE3 SSE4.2 AVX
[libx264 @ 0000022f0e74e640] profile High, level 4.0, 4:2:0, 8-bit
[libx264 @ 0000022f0e74e640] 264 - core 165 r3222 b35605a - H.264/MPEG-4 AVC codec - Copyleft 2003-2025 - http://www.videolan.org/x264.html - options: cabac=1 ref=1 deblock=1:0:0 analyse=0x3:0x113 me=hex subme=2 psy=1 psy_rd=1.00:0.00 mixed_ref=0 me_range=16 chroma_me=1 trellis=0 8x8dct=1 cqm=0 deadzone=21,11 fast_pskip=1 chroma_qp_offset=0 threads=34 lookahead_threads=8 sliced_threads=0 nr=0 decimate=1 interlaced=0 bluray_compat=0 constrained_intra=0 bframes=3 b_pyramid=2 b_adapt=1 b_bias=0 direct=1 weightb=1 open_gop=0 weightp=1 keyint=250 keyint_min=25 scenecut=40 intra_refresh=0 rc_lookahead=10 rc=crf mbtree=1 crf=23.0 qcomp=0.60 qpmin=0 qpmax=69 qpstep=4 vbv_maxrate=3000 vbv_bufsize=6000 crf_max=0.0 nal_hrd=none filler=0 ip_ratio=1.40 aq=1:1.00
[hls muxer @ 0000022f0f178980] [Eval @ 00000081845fe770] Invalid chars '=0' at the end of expression 'temp_file=0'
[hls muxer @ 0000022f0f178980] Unable to parse option value "temp_file=0+split_by_time"
[hls muxer @ 0000022f0f178980] Error setting option hls_flags to value independent_segments+append_list+program_date_time+temp_file=0+split_by_time.
[out#0/hls @ 0000022f0e7ecd80] Could not write header (incorrect codec parameters ?): Invalid argument
[vf#0:0 @ 0000022f0f17ab80] Error sending frames to consumers: Invalid argument
[vf#0:0 @ 0000022f0f17ab80] Task finished with error code: -22 (Invalid argument)
[vf#0:0 @ 0000022f0f17ab80] Terminating thread with return code -22 (Invalid argument)
[out#0/hls @ 0000022f0e7ecd80] Nothing was written into output file, because at least one of its streams received no packets.
frame=    0 fps=0.0 q=0.0 Lsize=       0KiB time=N/A bitrate=N/A speed=N/A elapsed=0:00:00.15    
[aac @ 0000022f0e7fca40] Qavg: 21653.545
Conversion failed!

=== START BUFFER 2025-08-13T14:07:41.249851 | ch=16 ===
Input #0, mpegts, from 'http://darkteam.vip:80/mo2@urute/36108548036242/445376':
  Duration: N/A, start: 886.954311, bitrate: N/A
  Program 1 
    Metadata:
      service_name    : Service01
      service_provider: FFmpeg
  Stream #0:0[0x100]: Video: h264 (High) ([27][0][0][0] / 0x001B), yuv420p(progressive), 1920x1080 [SAR 1:1 DAR 16:9], 30 fps, 30 tbr, 90k tbn, start 887.000000
  Stream #0:1[0x101](und): Audio: aac (LC) ([15][0][0][0] / 0x000F), 44100 Hz, mono, fltp, 66 kb/s, start 886.954311
Stream mapping:
  Stream #0:0 -> #0:0 (h264 (native) -> h264 (libx264))
  Stream #0:1 -> #0:1 (aac (native) -> aac (native))
[libx264 @ 000002891f3e6300] using SAR=1/1
[libx264 @ 000002891f3e6300] using cpu capabilities: MMX2 SSE2Fast SSSE3 SSE4.2 AVX
[libx264 @ 000002891f3e6300] profile High, level 4.0, 4:2:0, 8-bit
[libx264 @ 000002891f3e6300] 264 - core 165 r3222 b35605a - H.264/MPEG-4 AVC codec - Copyleft 2003-2025 - http://www.videolan.org/x264.html - options: cabac=1 ref=1 deblock=1:0:0 analyse=0x3:0x113 me=hex subme=2 psy=1 psy_rd=1.00:0.00 mixed_ref=0 me_range=16 chroma_me=1 trellis=0 8x8dct=1 cqm=0 deadzone=21,11 fast_pskip=1 chroma_qp_offset=0 threads=34 lookahead_threads=8 sliced_threads=0 nr=0 decimate=1 interlaced=0 bluray_compat=0 constrained_intra=0 bframes=3 b_pyramid=2 b_adapt=1 b_bias=0 direct=1 weightb=1 open_gop=0 weightp=1 keyint=250 keyint_min=25 scenecut=40 intra_refresh=0 rc_lookahead=10 rc=crf mbtree=1 crf=23.0 qcomp=0.60 qpmin=0 qpmax=69 qpstep=4 vbv_maxrate=3000 vbv_bufsize=6000 crf_max=0.0 nal_hrd=none filler=0 ip_ratio=1.40 aq=1:1.00
[hls muxer @ 000002891f3e4100] [Eval @ 000000e7a3ffe4e0] Invalid chars '=0' at the end of expression 'temp_file=0'
[hls muxer @ 000002891f3e4100] Unable to parse option value "temp_file=0+split_by_time"
[hls muxer @ 000002891f3e4100] Error setting option hls_flags to value independent_segments+append_list+program_date_time+temp_file=0+split_by_time.
[out#0/hls @ 000002891e444480] Could not write header (incorrect codec parameters ?): Invalid argument
[vf#0:0 @ 000002891ebe00c0] Error sending frames to consumers: Invalid argument
[vf#0:0 @ 000002891ebe00c0] Task finished with error code: -22 (Invalid argument)
[vf#0:0 @ 000002891ebe00c0] Terminating thread with return code -22 (Invalid argument)
[out#0/hls @ 000002891e444480] Nothing was written into output file, because at least one of its streams received no packets.
frame=    0 fps=0.0 q=0.0 Lsize=       0KiB time=N/A bitrate=N/A speed=N/A elapsed=0:00:00.16    
[aac @ 000002891eaaa840] Qavg: 418.841
Conversion failed!

=== START BUFFER 2025-08-13T14:07:49.934174 | ch=16 ===
